<?xml version="1.0" encoding="UTF-8" standalone="no"?>
<!DOCTYPE svg PUBLIC "-//W3C//DTD SVG 1.1//EN"
 "http://www.w3.org/Graphics/SVG/1.1/DTD/svg11.dtd">
<!-- Generated by graphviz version 5.0.0 (0)
 -->
<!-- Pages: 1 -->
<svg width="278pt" height="260pt"
 viewBox="0.00 0.00 278.00 260.00" xmlns="http://www.w3.org/2000/svg" xmlns:xlink="http://www.w3.org/1999/xlink">
<g id="graph0" class="graph" transform="scale(1 1) rotate(0) translate(4 256)">
<polygon fill="white" stroke="transparent" points="-4,4 -4,-256 274,-256 274,4 -4,4"/>
<!-- a -->
<g id="node1" class="node">
<title>a</title>
<ellipse fill="none" stroke="black" cx="135" cy="-234" rx="27" ry="18"/>
<text text-anchor="middle" x="135" y="-230.3" font-family="Iosevka,'Iosevka Term','Cascadia Code','JetBrains Mono','Fira Code',monospace" font-size="14.00">a</text>
</g>
<!-- c -->
<g id="node2" class="node">
<title>c</title>
<ellipse fill="none" stroke="black" cx="99" cy="-162" rx="27" ry="18"/>
<text text-anchor="middle" x="99" y="-158.3" font-family="Iosevka,'Iosevka Term','Cascadia Code','JetBrains Mono','Fira Code',monospace" font-size="14.00">c</text>
</g>
<!-- a&#45;&gt;c -->
<g id="edge1" class="edge">
<title>a&#45;&gt;c</title>
<path fill="none" stroke="black" d="M126.65,-216.76C122.29,-208.28 116.85,-197.71 111.96,-188.2"/>
<polygon fill="black" stroke="black" points="114.99,-186.44 107.3,-179.15 108.77,-189.64 114.99,-186.44"/>
</g>
<!-- e -->
<g id="node3" class="node">
<title>e</title>
<ellipse fill="none" stroke="black" cx="171" cy="-162" rx="27" ry="18"/>
<text text-anchor="middle" x="171" y="-158.3" font-family="Iosevka,'Iosevka Term','Cascadia Code','JetBrains Mono','Fira Code',monospace" font-size="14.00">e</text>
</g>
<!-- a&#45;&gt;e -->
<g id="edge2" class="edge">
<title>a&#45;&gt;e</title>
<path fill="none" stroke="black" d="M143.35,-216.76C147.71,-208.28 153.15,-197.71 158.04,-188.2"/>
<polygon fill="black" stroke="black" points="161.23,-189.64 162.7,-179.15 155.01,-186.44 161.23,-189.64"/>
</g>
<!-- b -->
<g id="node4" class="node">
<title>b</title>
<ellipse fill="none" stroke="black" cx="27" cy="-90" rx="27" ry="18"/>
<text text-anchor="middle" x="27" y="-86.3" font-family="Iosevka,'Iosevka Term','Cascadia Code','JetBrains Mono','Fira Code',monospace" font-size="14.00">b</text>
</g>
<!-- c&#45;&gt;b -->
<g id="edge3" class="edge">
<title>c&#45;&gt;b</title>
<path fill="none" stroke="black" d="M84.43,-146.83C74.25,-136.94 60.48,-123.55 48.97,-112.36"/>
<polygon fill="black" stroke="black" points="51.41,-109.85 41.8,-105.38 46.53,-114.87 51.41,-109.85"/>
</g>
<!-- i -->
<g id="node5" class="node">
<title>i</title>
<ellipse fill="none" stroke="black" cx="99" cy="-90" rx="27" ry="18"/>
<text text-anchor="middle" x="99" y="-86.3" font-family="Iosevka,'Iosevka Term','Cascadia Code','JetBrains Mono','Fira Code',monospace" font-size="14.00">i</text>
</g>
<!-- c&#45;&gt;i -->
<g id="edge4" class="edge">
<title>c&#45;&gt;i</title>
<path fill="none" stroke="black" d="M99,-143.7C99,-135.98 99,-126.71 99,-118.11"/>
<polygon fill="black" stroke="black" points="102.5,-118.1 99,-108.1 95.5,-118.1 102.5,-118.1"/>
</g>
<!-- h -->
<g id="node6" class="node">
<title>h</title>
<ellipse fill="none" stroke="black" cx="171" cy="-90" rx="27" ry="18"/>
<text text-anchor="middle" x="171" y="-86.3" font-family="Iosevka,'Iosevka Term','Cascadia Code','JetBrains Mono','Fira Code',monospace" font-size="14.00">h</text>
</g>
<!-- e&#45;&gt;h -->
<g id="edge5" class="edge">
<title>e&#45;&gt;h</title>
<path fill="none" stroke="black" d="M171,-143.7C171,-135.98 171,-126.71 171,-118.11"/>
<polygon fill="black" stroke="black" points="174.5,-118.1 171,-108.1 167.5,-118.1 174.5,-118.1"/>
</g>
<!-- j -->
<g id="node7" class="node">
<title>j</title>
<ellipse fill="none" stroke="black" cx="243" cy="-90" rx="27" ry="18"/>
<text text-anchor="middle" x="243" y="-86.3" font-family="Iosevka,'Iosevka Term','Cascadia Code','JetBrains Mono','Fira Code',monospace" font-size="14.00">j</text>
</g>
<!-- e&#45;&gt;j -->
<g id="edge6" class="edge">
<title>e&#45;&gt;j</title>
<path fill="none" stroke="black" d="M185.57,-146.83C195.75,-136.94 209.52,-123.55 221.03,-112.36"/>
<polygon fill="black" stroke="black" points="223.47,-114.87 228.2,-105.38 218.59,-109.85 223.47,-114.87"/>
</g>
<!-- d -->
<g id="node8" class="node">
<title>d</title>
<ellipse fill="none" stroke="black" cx="99" cy="-18" rx="27" ry="18"/>
<text text-anchor="middle" x="99" y="-14.3" font-family="Iosevka,'Iosevka Term','Cascadia Code','JetBrains Mono','Fira Code',monospace" font-size="14.00">d</text>
</g>
<!-- i&#45;&gt;d -->
<g id="edge7" class="edge">
<title>i&#45;&gt;d</title>
<path fill="none" stroke="black" d="M99,-71.7C99,-63.98 99,-54.71 99,-46.11"/>
<polygon fill="black" stroke="black" points="102.5,-46.1 99,-36.1 95.5,-46.1 102.5,-46.1"/>
</g>
</g>
</svg>
