<?xml version="1.0" encoding="UTF-8" standalone="no"?>
<!DOCTYPE svg PUBLIC "-//W3C//DTD SVG 1.1//EN" "http://www.w3.org/Graphics/SVG/1.1/DTD/svg11.dtd">
<!-- Generated by graphviz version 2.40.1 (20161225.0304)
 -->
<!-- Title: %0 Pages: 1 -->
<svg width="189pt" height="404pt" viewBox="0.00 0.00 189.00 404.00" xmlns="http://www.w3.org/2000/svg" xmlns:xlink="http://www.w3.org/1999/xlink">
<g id="graph0" class="graph" transform="scale(1 1) rotate(0) translate(4 400)">
<title>%0</title>
<polygon fill="#ffffff" stroke="transparent" points="-4,4 -4,-400 185,-400 185,4 -4,4"/>
<!-- a -->
<g id="node1" class="node">
<title>a</title>
<ellipse fill="none" stroke="#000000" cx="126" cy="-378" rx="27" ry="18"/>
<text text-anchor="middle" x="126" y="-373.8" font-family="Times,serif" font-size="14.00" fill="#000000">a</text>
</g>
<!-- c -->
<g id="node2" class="node">
<title>c</title>
<ellipse fill="none" stroke="#000000" cx="99" cy="-306" rx="27" ry="18"/>
<text text-anchor="middle" x="99" y="-301.8" font-family="Times,serif" font-size="14.00" fill="#000000">c</text>
</g>
<!-- a&#45;&#45;c -->
<g id="edge1" class="edge">
<title>a--c</title>
<path fill="none" stroke="#000000" d="M119.3258,-360.2022C115.1407,-349.0419 109.7679,-334.7143 105.5974,-323.593"/>
</g>
<!-- e -->
<g id="node3" class="node">
<title>e</title>
<ellipse fill="none" stroke="#000000" cx="154" cy="-162" rx="27" ry="18"/>
<text text-anchor="middle" x="154" y="-157.8" font-family="Times,serif" font-size="14.00" fill="#000000">e</text>
</g>
<!-- a&#45;&#45;e -->
<g id="edge2" class="edge">
<title>a--e</title>
<path fill="none" stroke="#000000" d="M129.2182,-360.0337C131.0409,-349.5449 133.2909,-336.0449 135,-324 142.3994,-271.8513 149.0765,-209.9625 152.1748,-180.0161"/>
</g>
<!-- i -->
<g id="node4" class="node">
<title>i</title>
<ellipse fill="none" stroke="#000000" cx="27" cy="-234" rx="27" ry="18"/>
<text text-anchor="middle" x="27" y="-229.8" font-family="Times,serif" font-size="14.00" fill="#000000">i</text>
</g>
<!-- c&#45;&#45;i -->
<g id="edge3" class="edge">
<title>c--i</title>
<path fill="none" stroke="#000000" d="M83.7307,-290.7307C71.512,-278.512 54.4602,-261.4602 42.2473,-249.2473"/>
</g>
<!-- b -->
<g id="node5" class="node">
<title>b</title>
<ellipse fill="none" stroke="#000000" cx="99" cy="-234" rx="27" ry="18"/>
<text text-anchor="middle" x="99" y="-229.8" font-family="Times,serif" font-size="14.00" fill="#000000">b</text>
</g>
<!-- c&#45;&#45;b -->
<g id="edge4" class="edge">
<title>c--b</title>
<path fill="none" stroke="#000000" d="M99,-287.8314C99,-277 99,-263.2876 99,-252.4133"/>
</g>
<!-- j -->
<g id="node6" class="node">
<title>j</title>
<ellipse fill="none" stroke="#000000" cx="126" cy="-18" rx="27" ry="18"/>
<text text-anchor="middle" x="126" y="-13.8" font-family="Times,serif" font-size="14.00" fill="#000000">j</text>
</g>
<!-- e&#45;&#45;j -->
<g id="edge5" class="edge">
<title>e--j</title>
<path fill="none" stroke="#000000" d="M150.5104,-144.0535C145.1449,-116.4592 134.9255,-63.9026 129.5336,-36.1727"/>
</g>
<!-- d -->
<g id="node7" class="node">
<title>d</title>
<ellipse fill="none" stroke="#000000" cx="36" cy="-162" rx="27" ry="18"/>
<text text-anchor="middle" x="36" y="-157.8" font-family="Times,serif" font-size="14.00" fill="#000000">d</text>
</g>
<!-- i&#45;&#45;d -->
<g id="edge6" class="edge">
<title>i--d</title>
<path fill="none" stroke="#000000" d="M29.2711,-215.8314C30.625,-205 32.3391,-191.2876 33.6983,-180.4133"/>
</g>
<!-- h -->
<g id="node8" class="node">
<title>h</title>
<ellipse fill="none" stroke="#000000" cx="99" cy="-90" rx="27" ry="18"/>
<text text-anchor="middle" x="99" y="-85.8" font-family="Times,serif" font-size="14.00" fill="#000000">h</text>
</g>
<!-- b&#45;&#45;h -->
<g id="edge7" class="edge">
<title>b--h</title>
<path fill="none" stroke="#000000" d="M99,-215.7623C99,-188.0633 99,-135.7005 99,-108.0896"/>
</g>
<!-- d&#45;&#45;h -->
<g id="edge8" class="edge">
<title>d--h</title>
<path fill="none" stroke="#000000" d="M49.6701,-146.3771C60.2373,-134.3003 74.7961,-117.6616 85.3566,-105.5924"/>
</g>
<!-- h&#45;&#45;j -->
<g id="edge9" class="edge">
<title>h--j</title>
<path fill="none" stroke="#000000" d="M105.6742,-72.2022C109.8593,-61.0419 115.2321,-46.7143 119.4026,-35.593"/>
</g>
</g>
</svg>
