<?xml version="1.0" encoding="UTF-8" standalone="no"?>
<!DOCTYPE svg PUBLIC "-//W3C//DTD SVG 1.1//EN"
 "http://www.w3.org/Graphics/SVG/1.1/DTD/svg11.dtd">
<!-- Generated by graphviz version 5.0.0 (0)
 -->
<!-- Pages: 1 -->
<svg width="189pt" height="404pt"
 viewBox="0.00 0.00 189.00 404.00" xmlns="http://www.w3.org/2000/svg" xmlns:xlink="http://www.w3.org/1999/xlink">
<g id="graph0" class="graph" transform="scale(1 1) rotate(0) translate(4 400)">
<polygon fill="white" stroke="transparent" points="-4,4 -4,-400 185,-400 185,4 -4,4"/>
<!-- a -->
<g id="node1" class="node">
<title>a</title>
<ellipse fill="none" stroke="black" cx="126" cy="-378" rx="27" ry="18"/>
<text text-anchor="middle" x="126" y="-374.3" font-family="Iosevka,'Iosevka Term','Cascadia Code','JetBrains Mono','Fira Code',monospace" font-size="14.00">a</text>
</g>
<!-- c -->
<g id="node2" class="node">
<title>c</title>
<ellipse fill="none" stroke="black" cx="99" cy="-306" rx="27" ry="18"/>
<text text-anchor="middle" x="99" y="-302.3" font-family="Iosevka,'Iosevka Term','Cascadia Code','JetBrains Mono','Fira Code',monospace" font-size="14.00">c</text>
</g>
<!-- a&#45;&#45;c -->
<g id="edge1" class="edge">
<title>a&#45;&#45;c</title>
<path fill="none" stroke="black" d="M119.6,-360.41C115.36,-349.41 109.81,-335.03 105.54,-323.96"/>
</g>
<!-- e -->
<g id="node3" class="node">
<title>e</title>
<ellipse fill="none" stroke="black" cx="154" cy="-162" rx="27" ry="18"/>
<text text-anchor="middle" x="154" y="-158.3" font-family="Iosevka,'Iosevka Term','Cascadia Code','JetBrains Mono','Fira Code',monospace" font-size="14.00">e</text>
</g>
<!-- a&#45;&#45;e -->
<g id="edge2" class="edge">
<title>a&#45;&#45;e</title>
<path fill="none" stroke="black" d="M129.14,-359.85C130.98,-349.49 133.27,-336.01 135,-324 142.49,-271.9 149.18,-210.01 152.24,-180.43"/>
</g>
<!-- i -->
<g id="node4" class="node">
<title>i</title>
<ellipse fill="none" stroke="black" cx="27" cy="-234" rx="27" ry="18"/>
<text text-anchor="middle" x="27" y="-230.3" font-family="Iosevka,'Iosevka Term','Cascadia Code','JetBrains Mono','Fira Code',monospace" font-size="14.00">i</text>
</g>
<!-- c&#45;&#45;i -->
<g id="edge3" class="edge">
<title>c&#45;&#45;i</title>
<path fill="none" stroke="black" d="M84.43,-290.83C72.02,-278.77 54.27,-261.51 41.8,-249.38"/>
</g>
<!-- b -->
<g id="node5" class="node">
<title>b</title>
<ellipse fill="none" stroke="black" cx="99" cy="-234" rx="27" ry="18"/>
<text text-anchor="middle" x="99" y="-230.3" font-family="Iosevka,'Iosevka Term','Cascadia Code','JetBrains Mono','Fira Code',monospace" font-size="14.00">b</text>
</g>
<!-- c&#45;&#45;b -->
<g id="edge4" class="edge">
<title>c&#45;&#45;b</title>
<path fill="none" stroke="black" d="M99,-287.7C99,-276.85 99,-262.92 99,-252.1"/>
</g>
<!-- j -->
<g id="node6" class="node">
<title>j</title>
<ellipse fill="none" stroke="black" cx="126" cy="-18" rx="27" ry="18"/>
<text text-anchor="middle" x="126" y="-14.3" font-family="Iosevka,'Iosevka Term','Cascadia Code','JetBrains Mono','Fira Code',monospace" font-size="14.00">j</text>
</g>
<!-- e&#45;&#45;j -->
<g id="edge5" class="edge">
<title>e&#45;&#45;j</title>
<path fill="none" stroke="black" d="M150.62,-143.87C145.24,-116.58 134.78,-63.52 129.39,-36.19"/>
</g>
<!-- d -->
<g id="node7" class="node">
<title>d</title>
<ellipse fill="none" stroke="black" cx="36" cy="-162" rx="27" ry="18"/>
<text text-anchor="middle" x="36" y="-158.3" font-family="Iosevka,'Iosevka Term','Cascadia Code','JetBrains Mono','Fira Code',monospace" font-size="14.00">d</text>
</g>
<!-- i&#45;&#45;d -->
<g id="edge6" class="edge">
<title>i&#45;&#45;d</title>
<path fill="none" stroke="black" d="M29.18,-216.05C30.57,-205.21 32.38,-191.18 33.78,-180.28"/>
</g>
<!-- h -->
<g id="node8" class="node">
<title>h</title>
<ellipse fill="none" stroke="black" cx="99" cy="-90" rx="27" ry="18"/>
<text text-anchor="middle" x="99" y="-86.3" font-family="Iosevka,'Iosevka Term','Cascadia Code','JetBrains Mono','Fira Code',monospace" font-size="14.00">h</text>
</g>
<!-- b&#45;&#45;h -->
<g id="edge7" class="edge">
<title>b&#45;&#45;h</title>
<path fill="none" stroke="black" d="M99,-215.87C99,-188.58 99,-135.52 99,-108.19"/>
</g>
<!-- d&#45;&#45;h -->
<g id="edge8" class="edge">
<title>d&#45;&#45;h</title>
<path fill="none" stroke="black" d="M49.36,-146.15C60.05,-134.28 74.97,-117.7 85.66,-105.82"/>
</g>
<!-- h&#45;&#45;j -->
<g id="edge9" class="edge">
<title>h&#45;&#45;j</title>
<path fill="none" stroke="black" d="M105.4,-72.41C109.64,-61.41 115.19,-47.03 119.46,-35.96"/>
</g>
</g>
</svg>
