<?xml version="1.0" encoding="UTF-8" standalone="no"?>
<!DOCTYPE svg PUBLIC "-//W3C//DTD SVG 1.1//EN"
 "http://www.w3.org/Graphics/SVG/1.1/DTD/svg11.dtd">
<!-- Generated by graphviz version 5.0.0 (0)
 -->
<!-- Title: G Pages: 1 -->
<svg width="638pt" height="207pt"
 viewBox="0.00 0.00 638.00 207.00" xmlns="http://www.w3.org/2000/svg" xmlns:xlink="http://www.w3.org/1999/xlink">
<g id="graph0" class="graph" transform="scale(1 1) rotate(0) translate(4 203)">
<title>G</title>
<polygon fill="white" stroke="transparent" points="-4,4 -4,-203 634,-203 634,4 -4,4"/>
<!-- a_node -->
<g id="node1" class="node">
<title>a_node</title>
<polygon fill="none" stroke="black" points="202.5,-162.5 202.5,-198.5 427.5,-198.5 427.5,-162.5 202.5,-162.5"/>
<text text-anchor="middle" x="215" y="-176.8" font-family="Iosevka,'Iosevka Term','Cascadia Code','JetBrains Mono','Fira Code',monospace" font-size="14.00">1</text>
<polyline fill="none" stroke="black" points="227.5,-162.5 227.5,-198.5 "/>
<text text-anchor="middle" x="240" y="-176.8" font-family="Iosevka,'Iosevka Term','Cascadia Code','JetBrains Mono','Fira Code',monospace" font-size="14.00">2</text>
<polyline fill="none" stroke="black" points="252.5,-162.5 252.5,-198.5 "/>
<text text-anchor="middle" x="265" y="-176.8" font-family="Iosevka,'Iosevka Term','Cascadia Code','JetBrains Mono','Fira Code',monospace" font-size="14.00">3</text>
<polyline fill="none" stroke="black" points="277.5,-162.5 277.5,-198.5 "/>
<text text-anchor="middle" x="290" y="-176.8" font-family="Iosevka,'Iosevka Term','Cascadia Code','JetBrains Mono','Fira Code',monospace" font-size="14.00">4</text>
<polyline fill="none" stroke="black" points="302.5,-162.5 302.5,-198.5 "/>
<text text-anchor="middle" x="315" y="-176.8" font-family="Iosevka,'Iosevka Term','Cascadia Code','JetBrains Mono','Fira Code',monospace" font-size="14.00">5</text>
<polyline fill="none" stroke="black" points="327.5,-162.5 327.5,-198.5 "/>
<text text-anchor="middle" x="340" y="-176.8" font-family="Iosevka,'Iosevka Term','Cascadia Code','JetBrains Mono','Fira Code',monospace" font-size="14.00">6</text>
<polyline fill="none" stroke="black" points="352.5,-162.5 352.5,-198.5 "/>
<text text-anchor="middle" x="365" y="-176.8" font-family="Iosevka,'Iosevka Term','Cascadia Code','JetBrains Mono','Fira Code',monospace" font-size="14.00">7</text>
<polyline fill="none" stroke="black" points="377.5,-162.5 377.5,-198.5 "/>
<text text-anchor="middle" x="390" y="-176.8" font-family="Iosevka,'Iosevka Term','Cascadia Code','JetBrains Mono','Fira Code',monospace" font-size="14.00">8</text>
<polyline fill="none" stroke="black" points="402.5,-162.5 402.5,-198.5 "/>
<text text-anchor="middle" x="415" y="-176.8" font-family="Iosevka,'Iosevka Term','Cascadia Code','JetBrains Mono','Fira Code',monospace" font-size="14.00">9</text>
</g>
<!-- b_node -->
<g id="node2" class="node">
<title>b_node</title>
<polygon fill="none" stroke="black" points="97.5,-74.5 97.5,-110.5 172.5,-110.5 172.5,-74.5 97.5,-74.5"/>
<text text-anchor="middle" x="110" y="-88.8" font-family="Iosevka,'Iosevka Term','Cascadia Code','JetBrains Mono','Fira Code',monospace" font-size="14.00">1</text>
<polyline fill="none" stroke="black" points="122.5,-74.5 122.5,-110.5 "/>
<text text-anchor="middle" x="135" y="-88.8" font-family="Iosevka,'Iosevka Term','Cascadia Code','JetBrains Mono','Fira Code',monospace" font-size="14.00">2</text>
<polyline fill="none" stroke="black" points="147.5,-74.5 147.5,-110.5 "/>
<text text-anchor="middle" x="160" y="-88.8" font-family="Iosevka,'Iosevka Term','Cascadia Code','JetBrains Mono','Fira Code',monospace" font-size="14.00">3</text>
</g>
<!-- a_node&#45;&gt;b_node -->
<g id="edge1" class="edge">
<title>a_node&#45;&gt;b_node</title>
<path fill="none" stroke="black" d="M279.01,-162.3C250.46,-148.67 210.42,-129.53 179.8,-114.9"/>
<polygon fill="black" stroke="black" points="181.16,-111.67 170.62,-110.52 178.14,-117.99 181.16,-111.67"/>
<text text-anchor="middle" x="240.5" y="-132.8" font-family="Iosevka,'Iosevka Term','Cascadia Code','JetBrains Mono','Fira Code',monospace" font-size="14.00">B</text>
</g>
<!-- c_node -->
<g id="node3" class="node">
<title>c_node</title>
<polygon fill="none" stroke="black" points="277.5,-74.5 277.5,-110.5 352.5,-110.5 352.5,-74.5 277.5,-74.5"/>
<text text-anchor="middle" x="290" y="-88.8" font-family="Iosevka,'Iosevka Term','Cascadia Code','JetBrains Mono','Fira Code',monospace" font-size="14.00">4</text>
<polyline fill="none" stroke="black" points="302.5,-74.5 302.5,-110.5 "/>
<text text-anchor="middle" x="315" y="-88.8" font-family="Iosevka,'Iosevka Term','Cascadia Code','JetBrains Mono','Fira Code',monospace" font-size="14.00">5</text>
<polyline fill="none" stroke="black" points="327.5,-74.5 327.5,-110.5 "/>
<text text-anchor="middle" x="340" y="-88.8" font-family="Iosevka,'Iosevka Term','Cascadia Code','JetBrains Mono','Fira Code',monospace" font-size="14.00">6</text>
</g>
<!-- a_node&#45;&gt;c_node -->
<g id="edge2" class="edge">
<title>a_node&#45;&gt;c_node</title>
<path fill="none" stroke="black" d="M315,-162.1C315,-150.25 315,-134.32 315,-120.79"/>
<polygon fill="black" stroke="black" points="318.5,-120.58 315,-110.58 311.5,-120.58 318.5,-120.58"/>
<text text-anchor="middle" x="319.5" y="-132.8" font-family="Iosevka,'Iosevka Term','Cascadia Code','JetBrains Mono','Fira Code',monospace" font-size="14.00">C</text>
</g>
<!-- d_node -->
<g id="node4" class="node">
<title>d_node</title>
<polygon fill="none" stroke="black" points="457.5,-74.5 457.5,-110.5 532.5,-110.5 532.5,-74.5 457.5,-74.5"/>
<text text-anchor="middle" x="470" y="-88.8" font-family="Iosevka,'Iosevka Term','Cascadia Code','JetBrains Mono','Fira Code',monospace" font-size="14.00">7</text>
<polyline fill="none" stroke="black" points="482.5,-74.5 482.5,-110.5 "/>
<text text-anchor="middle" x="495" y="-88.8" font-family="Iosevka,'Iosevka Term','Cascadia Code','JetBrains Mono','Fira Code',monospace" font-size="14.00">8</text>
<polyline fill="none" stroke="black" points="507.5,-74.5 507.5,-110.5 "/>
<text text-anchor="middle" x="520" y="-88.8" font-family="Iosevka,'Iosevka Term','Cascadia Code','JetBrains Mono','Fira Code',monospace" font-size="14.00">9</text>
</g>
<!-- a_node&#45;&gt;d_node -->
<g id="edge3" class="edge">
<title>a_node&#45;&gt;d_node</title>
<path fill="none" stroke="black" d="M350.99,-162.3C379.54,-148.67 419.58,-129.53 450.2,-114.9"/>
<polygon fill="black" stroke="black" points="451.86,-117.99 459.38,-110.52 448.84,-111.67 451.86,-117.99"/>
<text text-anchor="middle" x="419.5" y="-132.8" font-family="Iosevka,'Iosevka Term','Cascadia Code','JetBrains Mono','Fira Code',monospace" font-size="14.00">D</text>
</g>
<!-- 1 -->
<g id="node5" class="node">
<title>1</title>
<polygon fill="none" stroke="black" points="0,-0.5 0,-36.5 54,-36.5 54,-0.5 0,-0.5"/>
<text text-anchor="middle" x="27" y="-14.8" font-family="Iosevka,'Iosevka Term','Cascadia Code','JetBrains Mono','Fira Code',monospace" font-size="14.00">1</text>
</g>
<!-- b_node&#45;&gt;1 -->
<g id="edge4" class="edge">
<title>b_node&#45;&gt;1</title>
<path fill="none" stroke="black" d="M109.41,-74.44C94.98,-64.82 76.79,-52.69 61.16,-42.27"/>
<polygon fill="black" stroke="black" points="63.05,-39.32 52.79,-36.69 59.16,-45.15 63.05,-39.32"/>
</g>
<!-- 2 -->
<g id="node6" class="node">
<title>2</title>
<polygon fill="none" stroke="black" points="72,-0.5 72,-36.5 126,-36.5 126,-0.5 72,-0.5"/>
<text text-anchor="middle" x="99" y="-14.8" font-family="Iosevka,'Iosevka Term','Cascadia Code','JetBrains Mono','Fira Code',monospace" font-size="14.00">2</text>
</g>
<!-- b_node&#45;&gt;2 -->
<g id="edge5" class="edge">
<title>b_node&#45;&gt;2</title>
<path fill="none" stroke="black" d="M126.47,-74.44C122.23,-65.95 117,-55.51 112.26,-46.01"/>
<polygon fill="black" stroke="black" points="115.32,-44.32 107.72,-36.94 109.06,-47.45 115.32,-44.32"/>
</g>
<!-- 3 -->
<g id="node7" class="node">
<title>3</title>
<polygon fill="none" stroke="black" points="144,-0.5 144,-36.5 198,-36.5 198,-0.5 144,-0.5"/>
<text text-anchor="middle" x="171" y="-14.8" font-family="Iosevka,'Iosevka Term','Cascadia Code','JetBrains Mono','Fira Code',monospace" font-size="14.00">3</text>
</g>
<!-- b_node&#45;&gt;3 -->
<g id="edge6" class="edge">
<title>b_node&#45;&gt;3</title>
<path fill="none" stroke="black" d="M143.53,-74.44C147.77,-65.95 153,-55.51 157.74,-46.01"/>
<polygon fill="black" stroke="black" points="160.94,-47.45 162.28,-36.94 154.68,-44.32 160.94,-47.45"/>
</g>
<!-- 4 -->
<g id="node8" class="node">
<title>4</title>
<polygon fill="none" stroke="black" points="216,-0.5 216,-36.5 270,-36.5 270,-0.5 216,-0.5"/>
<text text-anchor="middle" x="243" y="-14.8" font-family="Iosevka,'Iosevka Term','Cascadia Code','JetBrains Mono','Fira Code',monospace" font-size="14.00">4</text>
</g>
<!-- c_node&#45;&gt;4 -->
<g id="edge7" class="edge">
<title>c_node&#45;&gt;4</title>
<path fill="none" stroke="black" d="M297.94,-74.44C288.92,-65.42 277.7,-54.2 267.74,-44.24"/>
<polygon fill="black" stroke="black" points="269.99,-41.54 260.44,-36.94 265.04,-46.49 269.99,-41.54"/>
</g>
<!-- 5 -->
<g id="node9" class="node">
<title>5</title>
<polygon fill="none" stroke="black" points="288,-0.5 288,-36.5 342,-36.5 342,-0.5 288,-0.5"/>
<text text-anchor="middle" x="315" y="-14.8" font-family="Iosevka,'Iosevka Term','Cascadia Code','JetBrains Mono','Fira Code',monospace" font-size="14.00">5</text>
</g>
<!-- c_node&#45;&gt;5 -->
<g id="edge8" class="edge">
<title>c_node&#45;&gt;5</title>
<path fill="none" stroke="black" d="M315,-74.44C315,-66.31 315,-56.38 315,-47.2"/>
<polygon fill="black" stroke="black" points="318.5,-46.94 315,-36.94 311.5,-46.94 318.5,-46.94"/>
</g>
<!-- 6 -->
<g id="node10" class="node">
<title>6</title>
<polygon fill="none" stroke="black" points="360,-0.5 360,-36.5 414,-36.5 414,-0.5 360,-0.5"/>
<text text-anchor="middle" x="387" y="-14.8" font-family="Iosevka,'Iosevka Term','Cascadia Code','JetBrains Mono','Fira Code',monospace" font-size="14.00">6</text>
</g>
<!-- c_node&#45;&gt;6 -->
<g id="edge9" class="edge">
<title>c_node&#45;&gt;6</title>
<path fill="none" stroke="black" d="M332.06,-74.44C341.08,-65.42 352.3,-54.2 362.26,-44.24"/>
<polygon fill="black" stroke="black" points="364.96,-46.49 369.56,-36.94 360.01,-41.54 364.96,-46.49"/>
</g>
<!-- 7 -->
<g id="node11" class="node">
<title>7</title>
<polygon fill="none" stroke="black" points="432,-0.5 432,-36.5 486,-36.5 486,-0.5 432,-0.5"/>
<text text-anchor="middle" x="459" y="-14.8" font-family="Iosevka,'Iosevka Term','Cascadia Code','JetBrains Mono','Fira Code',monospace" font-size="14.00">7</text>
</g>
<!-- d_node&#45;&gt;7 -->
<g id="edge10" class="edge">
<title>d_node&#45;&gt;7</title>
<path fill="none" stroke="black" d="M486.47,-74.44C482.23,-65.95 477,-55.51 472.26,-46.01"/>
<polygon fill="black" stroke="black" points="475.32,-44.32 467.72,-36.94 469.06,-47.45 475.32,-44.32"/>
</g>
<!-- 8 -->
<g id="node12" class="node">
<title>8</title>
<polygon fill="none" stroke="black" points="504,-0.5 504,-36.5 558,-36.5 558,-0.5 504,-0.5"/>
<text text-anchor="middle" x="531" y="-14.8" font-family="Iosevka,'Iosevka Term','Cascadia Code','JetBrains Mono','Fira Code',monospace" font-size="14.00">8</text>
</g>
<!-- d_node&#45;&gt;8 -->
<g id="edge11" class="edge">
<title>d_node&#45;&gt;8</title>
<path fill="none" stroke="black" d="M503.53,-74.44C507.77,-65.95 513,-55.51 517.74,-46.01"/>
<polygon fill="black" stroke="black" points="520.94,-47.45 522.28,-36.94 514.68,-44.32 520.94,-47.45"/>
</g>
<!-- 9 -->
<g id="node13" class="node">
<title>9</title>
<polygon fill="none" stroke="black" points="576,-0.5 576,-36.5 630,-36.5 630,-0.5 576,-0.5"/>
<text text-anchor="middle" x="603" y="-14.8" font-family="Iosevka,'Iosevka Term','Cascadia Code','JetBrains Mono','Fira Code',monospace" font-size="14.00">9</text>
</g>
<!-- d_node&#45;&gt;9 -->
<g id="edge12" class="edge">
<title>d_node&#45;&gt;9</title>
<path fill="none" stroke="black" d="M520.59,-74.44C535.02,-64.82 553.21,-52.69 568.84,-42.27"/>
<polygon fill="black" stroke="black" points="570.84,-45.15 577.21,-36.69 566.95,-39.32 570.84,-45.15"/>
</g>
</g>
</svg>
