<?xml version="1.0" encoding="UTF-8" standalone="no"?>
<!DOCTYPE svg PUBLIC "-//W3C//DTD SVG 1.1//EN" "http://www.w3.org/Graphics/SVG/1.1/DTD/svg11.dtd">
<!-- Generated by graphviz version 2.40.1 (20161225.0304)
 -->
<!-- Title: G Pages: 1 -->
<svg width="638pt" height="209pt" viewBox="0.00 0.00 638.00 208.80" xmlns="http://www.w3.org/2000/svg" xmlns:xlink="http://www.w3.org/1999/xlink">
<g id="graph0" class="graph" transform="scale(1 1) rotate(0) translate(4 204.8)">
<title>G</title>
<polygon fill="#ffffff" stroke="transparent" points="-4,4 -4,-204.8 634,-204.8 634,4 -4,4"/>
<!-- a_node -->
<g id="node1" class="node">
<title>a_node</title>
<polygon fill="none" stroke="#000000" points="211.5,-164.3 211.5,-200.3 418.5,-200.3 418.5,-164.3 211.5,-164.3"/>
<text text-anchor="middle" x="223" y="-178.1" font-family="Times,serif" font-size="14.00" fill="#000000">1</text>
<polyline fill="none" stroke="#000000" points="234.5,-164.3 234.5,-200.3 "/>
<text text-anchor="middle" x="246" y="-178.1" font-family="Times,serif" font-size="14.00" fill="#000000">2</text>
<polyline fill="none" stroke="#000000" points="257.5,-164.3 257.5,-200.3 "/>
<text text-anchor="middle" x="269" y="-178.1" font-family="Times,serif" font-size="14.00" fill="#000000">3</text>
<polyline fill="none" stroke="#000000" points="280.5,-164.3 280.5,-200.3 "/>
<text text-anchor="middle" x="292" y="-178.1" font-family="Times,serif" font-size="14.00" fill="#000000">4</text>
<polyline fill="none" stroke="#000000" points="303.5,-164.3 303.5,-200.3 "/>
<text text-anchor="middle" x="315" y="-178.1" font-family="Times,serif" font-size="14.00" fill="#000000">5</text>
<polyline fill="none" stroke="#000000" points="326.5,-164.3 326.5,-200.3 "/>
<text text-anchor="middle" x="338" y="-178.1" font-family="Times,serif" font-size="14.00" fill="#000000">6</text>
<polyline fill="none" stroke="#000000" points="349.5,-164.3 349.5,-200.3 "/>
<text text-anchor="middle" x="361" y="-178.1" font-family="Times,serif" font-size="14.00" fill="#000000">7</text>
<polyline fill="none" stroke="#000000" points="372.5,-164.3 372.5,-200.3 "/>
<text text-anchor="middle" x="384" y="-178.1" font-family="Times,serif" font-size="14.00" fill="#000000">8</text>
<polyline fill="none" stroke="#000000" points="395.5,-164.3 395.5,-200.3 "/>
<text text-anchor="middle" x="407" y="-178.1" font-family="Times,serif" font-size="14.00" fill="#000000">9</text>
</g>
<!-- b_node -->
<g id="node2" class="node">
<title>b_node</title>
<polygon fill="none" stroke="#000000" points="100.5,-74.5 100.5,-110.5 169.5,-110.5 169.5,-74.5 100.5,-74.5"/>
<text text-anchor="middle" x="112" y="-88.3" font-family="Times,serif" font-size="14.00" fill="#000000">1</text>
<polyline fill="none" stroke="#000000" points="123.5,-74.5 123.5,-110.5 "/>
<text text-anchor="middle" x="135" y="-88.3" font-family="Times,serif" font-size="14.00" fill="#000000">2</text>
<polyline fill="none" stroke="#000000" points="146.5,-74.5 146.5,-110.5 "/>
<text text-anchor="middle" x="158" y="-88.3" font-family="Times,serif" font-size="14.00" fill="#000000">3</text>
</g>
<!-- a_node&#45;&gt;b_node -->
<g id="edge1" class="edge">
<title>a_node-&gt;b_node</title>
<path fill="none" stroke="#000000" d="M278.5743,-164.1276C249.7143,-149.7297 209.2985,-129.5667 178.6975,-114.3002"/>
<polygon fill="#000000" stroke="#000000" points="180.0501,-111.0637 169.5394,-109.7313 176.9252,-117.3274 180.0501,-111.0637"/>
<text text-anchor="middle" x="246.6683" y="-133.2" font-family="Times,serif" font-size="14.00" fill="#000000">B</text>
</g>
<!-- c_node -->
<g id="node3" class="node">
<title>c_node</title>
<polygon fill="none" stroke="#000000" points="280.5,-74.5 280.5,-110.5 349.5,-110.5 349.5,-74.5 280.5,-74.5"/>
<text text-anchor="middle" x="292" y="-88.3" font-family="Times,serif" font-size="14.00" fill="#000000">4</text>
<polyline fill="none" stroke="#000000" points="303.5,-74.5 303.5,-110.5 "/>
<text text-anchor="middle" x="315" y="-88.3" font-family="Times,serif" font-size="14.00" fill="#000000">5</text>
<polyline fill="none" stroke="#000000" points="326.5,-74.5 326.5,-110.5 "/>
<text text-anchor="middle" x="338" y="-88.3" font-family="Times,serif" font-size="14.00" fill="#000000">6</text>
</g>
<!-- a_node&#45;&gt;c_node -->
<g id="edge2" class="edge">
<title>a_node-&gt;c_node</title>
<path fill="none" stroke="#000000" d="M315,-164.1276C315,-151.7124 315,-135.0106 315,-120.8579"/>
<polygon fill="#000000" stroke="#000000" points="318.5001,-120.6453 315,-110.6453 311.5001,-120.6454 318.5001,-120.6453"/>
<text text-anchor="middle" x="319.6683" y="-133.2" font-family="Times,serif" font-size="14.00" fill="#000000">C</text>
</g>
<!-- d_node -->
<g id="node4" class="node">
<title>d_node</title>
<polygon fill="none" stroke="#000000" points="460.5,-74.5 460.5,-110.5 529.5,-110.5 529.5,-74.5 460.5,-74.5"/>
<text text-anchor="middle" x="472" y="-88.3" font-family="Times,serif" font-size="14.00" fill="#000000">7</text>
<polyline fill="none" stroke="#000000" points="483.5,-74.5 483.5,-110.5 "/>
<text text-anchor="middle" x="495" y="-88.3" font-family="Times,serif" font-size="14.00" fill="#000000">8</text>
<polyline fill="none" stroke="#000000" points="506.5,-74.5 506.5,-110.5 "/>
<text text-anchor="middle" x="518" y="-88.3" font-family="Times,serif" font-size="14.00" fill="#000000">9</text>
</g>
<!-- a_node&#45;&gt;d_node -->
<g id="edge3" class="edge">
<title>a_node-&gt;d_node</title>
<path fill="none" stroke="#000000" d="M351.4257,-164.1276C380.2857,-149.7297 420.7015,-129.5667 451.3025,-114.3002"/>
<polygon fill="#000000" stroke="#000000" points="453.0748,-117.3274 460.4606,-109.7313 449.9499,-111.0637 453.0748,-117.3274"/>
<text text-anchor="middle" x="426.0533" y="-133.2" font-family="Times,serif" font-size="14.00" fill="#000000">D</text>
</g>
<!-- 1 -->
<g id="node5" class="node">
<title>1</title>
<polygon fill="none" stroke="#000000" points="0,-.5 0,-36.5 54,-36.5 54,-.5 0,-.5"/>
<text text-anchor="middle" x="27" y="-14.3" font-family="Times,serif" font-size="14.00" fill="#000000">1</text>
</g>
<!-- b_node&#45;&gt;1 -->
<g id="edge4" class="edge">
<title>b_node-&gt;1</title>
<path fill="none" stroke="#000000" d="M108.5802,-74.3976C94.59,-64.8117 77.2236,-52.9125 62.1142,-42.5597"/>
<polygon fill="#000000" stroke="#000000" points="63.749,-39.4371 53.5213,-36.672 59.7923,-45.2116 63.749,-39.4371"/>
</g>
<!-- 2 -->
<g id="node6" class="node">
<title>2</title>
<polygon fill="none" stroke="#000000" points="72,-.5 72,-36.5 126,-36.5 126,-.5 72,-.5"/>
<text text-anchor="middle" x="99" y="-14.3" font-family="Times,serif" font-size="14.00" fill="#000000">2</text>
</g>
<!-- b_node&#45;&gt;2 -->
<g id="edge5" class="edge">
<title>b_node-&gt;2</title>
<path fill="none" stroke="#000000" d="M126.1011,-74.2079C121.916,-65.6051 116.8401,-55.1713 112.2178,-45.6699"/>
<polygon fill="#000000" stroke="#000000" points="115.3186,-44.0429 107.7965,-36.5817 109.0239,-47.1052 115.3186,-44.0429"/>
</g>
<!-- 3 -->
<g id="node7" class="node">
<title>3</title>
<polygon fill="none" stroke="#000000" points="144,-.5 144,-36.5 198,-36.5 198,-.5 144,-.5"/>
<text text-anchor="middle" x="171" y="-14.3" font-family="Times,serif" font-size="14.00" fill="#000000">3</text>
</g>
<!-- b_node&#45;&gt;3 -->
<g id="edge6" class="edge">
<title>b_node-&gt;3</title>
<path fill="none" stroke="#000000" d="M143.8989,-74.2079C148.084,-65.6051 153.1599,-55.1713 157.7822,-45.6699"/>
<polygon fill="#000000" stroke="#000000" points="160.9761,-47.1052 162.2035,-36.5817 154.6814,-44.0429 160.9761,-47.1052"/>
</g>
<!-- 4 -->
<g id="node8" class="node">
<title>4</title>
<polygon fill="none" stroke="#000000" points="216,-.5 216,-36.5 270,-36.5 270,-.5 216,-.5"/>
<text text-anchor="middle" x="243" y="-14.3" font-family="Times,serif" font-size="14.00" fill="#000000">4</text>
</g>
<!-- c_node&#45;&gt;4 -->
<g id="edge7" class="edge">
<title>c_node-&gt;4</title>
<path fill="none" stroke="#000000" d="M297.2022,-74.2079C288.3088,-65.0674 277.4042,-53.8599 267.7135,-43.9"/>
<polygon fill="#000000" stroke="#000000" points="270.0752,-41.3083 260.593,-36.5817 265.0581,-46.1898 270.0752,-41.3083"/>
</g>
<!-- 5 -->
<g id="node9" class="node">
<title>5</title>
<polygon fill="none" stroke="#000000" points="288,-.5 288,-36.5 342,-36.5 342,-.5 288,-.5"/>
<text text-anchor="middle" x="315" y="-14.3" font-family="Times,serif" font-size="14.00" fill="#000000">5</text>
</g>
<!-- c_node&#45;&gt;5 -->
<g id="edge8" class="edge">
<title>c_node-&gt;5</title>
<path fill="none" stroke="#000000" d="M315,-74.2079C315,-65.9635 315,-56.0376 315,-46.8622"/>
<polygon fill="#000000" stroke="#000000" points="318.5001,-46.5817 315,-36.5817 311.5001,-46.5818 318.5001,-46.5817"/>
</g>
<!-- 6 -->
<g id="node10" class="node">
<title>6</title>
<polygon fill="none" stroke="#000000" points="360,-.5 360,-36.5 414,-36.5 414,-.5 360,-.5"/>
<text text-anchor="middle" x="387" y="-14.3" font-family="Times,serif" font-size="14.00" fill="#000000">6</text>
</g>
<!-- c_node&#45;&gt;6 -->
<g id="edge9" class="edge">
<title>c_node-&gt;6</title>
<path fill="none" stroke="#000000" d="M332.7978,-74.2079C341.6912,-65.0674 352.5958,-53.8599 362.2865,-43.9"/>
<polygon fill="#000000" stroke="#000000" points="364.9419,-46.1898 369.407,-36.5817 359.9248,-41.3083 364.9419,-46.1898"/>
</g>
<!-- 7 -->
<g id="node11" class="node">
<title>7</title>
<polygon fill="none" stroke="#000000" points="432,-.5 432,-36.5 486,-36.5 486,-.5 432,-.5"/>
<text text-anchor="middle" x="459" y="-14.3" font-family="Times,serif" font-size="14.00" fill="#000000">7</text>
</g>
<!-- d_node&#45;&gt;7 -->
<g id="edge10" class="edge">
<title>d_node-&gt;7</title>
<path fill="none" stroke="#000000" d="M486.1011,-74.2079C481.916,-65.6051 476.8401,-55.1713 472.2178,-45.6699"/>
<polygon fill="#000000" stroke="#000000" points="475.3186,-44.0429 467.7965,-36.5817 469.0239,-47.1052 475.3186,-44.0429"/>
</g>
<!-- 8 -->
<g id="node12" class="node">
<title>8</title>
<polygon fill="none" stroke="#000000" points="504,-.5 504,-36.5 558,-36.5 558,-.5 504,-.5"/>
<text text-anchor="middle" x="531" y="-14.3" font-family="Times,serif" font-size="14.00" fill="#000000">8</text>
</g>
<!-- d_node&#45;&gt;8 -->
<g id="edge11" class="edge">
<title>d_node-&gt;8</title>
<path fill="none" stroke="#000000" d="M503.8989,-74.2079C508.084,-65.6051 513.1599,-55.1713 517.7822,-45.6699"/>
<polygon fill="#000000" stroke="#000000" points="520.9761,-47.1052 522.2035,-36.5817 514.6814,-44.0429 520.9761,-47.1052"/>
</g>
<!-- 9 -->
<g id="node13" class="node">
<title>9</title>
<polygon fill="none" stroke="#000000" points="576,-.5 576,-36.5 630,-36.5 630,-.5 576,-.5"/>
<text text-anchor="middle" x="603" y="-14.3" font-family="Times,serif" font-size="14.00" fill="#000000">9</text>
</g>
<!-- d_node&#45;&gt;9 -->
<g id="edge12" class="edge">
<title>d_node-&gt;9</title>
<path fill="none" stroke="#000000" d="M521.4198,-74.3976C535.41,-64.8117 552.7764,-52.9125 567.8858,-42.5597"/>
<polygon fill="#000000" stroke="#000000" points="570.2077,-45.2116 576.4787,-36.672 566.251,-39.4371 570.2077,-45.2116"/>
</g>
</g>
</svg>
